<svg xmlns="http://www.w3.org/2000/svg" width="100" height="100" viewBox="0 0 100 100">
  <g transform="translate(6 5)">
    <path data-name="패스 32" d="M10.7 7.3 6 2.5 1.3 7.3 0 6l6-6 6 6z" style="fill:#9fa1a7"/>
    <path data-name="사각형 97" transform="translate(5.1 2)" style="fill:#9fa1a7" d="M0 0h1.7v11H0z"/>
  </g>
  <g transform="translate(56 5)">
    <path data-name="패스 32" d="M10.7 7.3 6 2.5 1.3 7.3 0 6l6-6 6 6z" style="fill:#07f"/>
    <path data-name="사각형 97" transform="translate(5.1 2)" style="fill:#07f" d="M0 0h1.7v11H0z"/>
  </g>
  <g transform="translate(0 50)">
    <path style="fill:none" d="M0 0h24v24H0z"/>
    <g data-name="그룹 336">
        <g data-name="사각형 279" style="stroke:#9fa1a7;stroke-width:1.5px;fill:none">
            <path style="stroke:none" d="M0 0h16v13H0z" transform="translate(4 5.5)"/>
            <path style="fill:none" d="M.75.75h14.5v11.5H.75z" transform="translate(4 5.5)"/>
        </g>
        <path data-name="다각형 1" d="M2.5 0 5 4H0z" transform="rotate(90 2.5 12)" style="fill:#9fa1a7"/>
    </g>
  </g>
  <g transform="translate(50 50)">
    <path style="fill:none" d="M0 0h24v24H0z"/>
    <g data-name="그룹 336">
        <g data-name="사각형 279" style="stroke:#fff;stroke-width:1.5px;fill:none">
            <path style="stroke:none" d="M0 0h16v13H0z" transform="translate(4 5.5)"/>
            <path style="fill:none" d="M.75.75h14.5v11.5H.75z" transform="translate(4 5.5)"/>
        </g>
        <path data-name="다각형 1" d="M2.5 0 5 4H0z" transform="rotate(90 2.5 12)" style="fill:#fff"/>
    </g>
  </g>
</svg>