<svg xmlns="http://www.w3.org/2000/svg" width="100" height="50" viewBox="0 0 100 50">
  <g transform="translate(0 0)">
    <path data-name="사각형 8400" style="fill:none" d="M0 0h18v18H0z"/>
    <path data-name="패스 10338" d="M9.333 1.333h5.333v5.334h-1.333V3.61L8 8.943 7.057 8l5.333-5.333H9.333z" style="fill:#4a4e57;fill-rule:evenodd" transform="translate(1.067 1.067)"/>
    <path data-name="패스 10339" d="M1.333 2h5.333v1.333h-4v10h10V8.667H14v6H1.333z" style="fill:#4a4e57;fill-rule:evenodd" transform="translate(1.067 1.067)"/>
  </g>
  <g transform="translate(50 0)">
    <path data-name="사각형 8400" style="fill:none" d="M0 0h18v18H0z"/>
    <path data-name="패스 10338" d="M9.333 1.333h5.333v5.334h-1.333V3.61L8 8.943 7.057 8l5.333-5.333H9.333z" style="fill:#07f;fill-rule:evenodd" transform="translate(1.067 1.067)"/>
    <path data-name="패스 10339" d="M1.333 2h5.333v1.333h-4v10h10V8.667H14v6H1.333z" style="fill:#07f;fill-rule:evenodd" transform="translate(1.067 1.067)"/>
  </g>
</svg>