<svg xmlns="http://www.w3.org/2000/svg" width="100" height="150" viewBox="0 0 100 150">
    <g transform="translate(0 0)">
        <path data-name="패스 10536" d="M16 0H0v16h16z" style="fill:none"/>
        <path data-name="패스 10537" d="M1.767 2.421a1.414 1.414 0 0 0-.434 1.015V9.9a1.414 1.414 0 0 0 .434 1.015 1.506 1.506 0 0 0 1.048.42h4.352l-.333 1.333h-1.5a.667.667 0 1 0 0 1.333h5.333a.667.667 0 1 0 0-1.333h-1.5l-.333-1.333h4.352a1.506 1.506 0 0 0 1.048-.42 1.414 1.414 0 0 0 .433-1.015V3.436a1.414 1.414 0 0 0-.434-1.015A1.506 1.506 0 0 0 13.185 2H2.815a1.506 1.506 0 0 0-1.048.421zm1.141 1.092A.707.707 0 0 0 2.667 4v4.666a.707.707 0 0 0 .241.488.73.73 0 0 0 .521.179h9.143a.73.73 0 0 0 .521-.179.708.708 0 0 0 .241-.488V4a.708.708 0 0 0-.241-.488.73.73 0 0 0-.521-.179H3.429a.73.73 0 0 0-.521.18z" style="fill:#c4c9d4;fill-rule:evenodd"/>
    </g>
    <g transform="translate(50 0)">
        <path data-name="패스 10536" d="M16 0H0v16h16z" style="fill:none"/>
        <path data-name="패스 10537" d="M1.767 2.421a1.414 1.414 0 0 0-.434 1.015V9.9a1.414 1.414 0 0 0 .434 1.015 1.506 1.506 0 0 0 1.048.42h4.352l-.333 1.333h-1.5a.667.667 0 1 0 0 1.333h5.333a.667.667 0 1 0 0-1.333h-1.5l-.333-1.333h4.352a1.506 1.506 0 0 0 1.048-.42 1.414 1.414 0 0 0 .433-1.015V3.436a1.414 1.414 0 0 0-.434-1.015A1.506 1.506 0 0 0 13.185 2H2.815a1.506 1.506 0 0 0-1.048.421zm1.141 1.092A.707.707 0 0 0 2.667 4v4.666a.707.707 0 0 0 .241.488.73.73 0 0 0 .521.179h9.143a.73.73 0 0 0 .521-.179.708.708 0 0 0 .241-.488V4a.708.708 0 0 0-.241-.488.73.73 0 0 0-.521-.179H3.429a.73.73 0 0 0-.521.18z" style="fill:#fff;fill-rule:evenodd"/>
    </g>
    <g transform="translate(0 50)">
        <path data-name="패스 10538" d="M16 0H0v16h16z" style="fill:none"/>
        <path data-name="패스 10539" d="M11.513 1.333H3.821a1.133 1.133 0 0 0-1.154 1.111v11.112a1.133 1.133 0 0 0 1.154 1.111h7.692a1.133 1.133 0 0 0 1.154-1.111V2.444a1.133 1.133 0 0 0-1.154-1.111zm-.994 1.333h-5.7A.773.773 0 0 0 4 3.389v7.222a.773.773 0 0 0 .815.722h5.7a.773.773 0 0 0 .815-.722V3.389a.773.773 0 0 0-.811-.722zM7.667 12a1 1 0 1 0 1 1 1 1 0 0 0-1-1z" style="fill:#c4c9d4;fill-rule:evenodd"/>
    </g>
    <g transform="translate(50 50)">
        <path data-name="패스 10538" d="M16 0H0v16h16z" style="fill:none"/>
        <path data-name="패스 10539" d="M11.513 1.333H3.821a1.133 1.133 0 0 0-1.154 1.111v11.112a1.133 1.133 0 0 0 1.154 1.111h7.692a1.133 1.133 0 0 0 1.154-1.111V2.444a1.133 1.133 0 0 0-1.154-1.111zm-.994 1.333h-5.7A.773.773 0 0 0 4 3.389v7.222a.773.773 0 0 0 .815.722h5.7a.773.773 0 0 0 .815-.722V3.389a.773.773 0 0 0-.811-.722zM7.667 12a1 1 0 1 0 1 1 1 1 0 0 0-1-1z" style="fill:#fff;fill-rule:evenodd"/>
    </g>
    <g transform="translate(0 100)">
        <path data-name="패스 10540" d="M16 0H0v16h16z" style="fill:none"/>
        <path data-name="패스 10541" d="M2.635 5.444a2.667 2.667 0 0 1 2.608-2.111h.312l.018.11A.667.667 0 0 0 6.231 4h3.538a.667.667 0 0 0 .658-.557l.018-.11h.312a2.667 2.667 0 0 1 2.609 2.111l1.278 6a1.013 1.013 0 0 1-1.87.714l-1.157.663 1.157-.663-.75-1.309a2 2 0 0 0-1.735-1.006H5.712a2 2 0 0 0-1.735 1.006l-.75 1.309a1.013 1.013 0 0 1-1.87-.714zm8.232 6.067.75 1.309a2.347 2.347 0 0 0 4.331-1.655l-1.278-6A4 4 0 0 0 10.757 2H5.243a4 4 0 0 0-3.912 3.166l-1.278 6a2.347 2.347 0 0 0 4.331 1.654l.75-1.309a.667.667 0 0 1 .579-.335h4.576a.667.667 0 0 1 .577.336zM4.667 6v-.667a.667.667 0 0 1 1.333 0V6h.667a.667.667 0 0 1 0 1.333H6V8a.667.667 0 0 1-1.333 0v-.667H4A.667.667 0 1 1 4 6zm4.869.179.488.488-.488.488a.69.69 0 1 0 .976.976L11 7.643l.488.488a.69.69 0 0 0 .976-.976l-.488-.488.488-.488a.69.69 0 0 0-.976-.976L11 5.69l-.488-.49a.69.69 0 1 0-.976.976z" style="fill:#c4c9d4;fill-rule:evenodd"/>
    </g>
    <g transform="translate(50 100)">
        <path data-name="패스 10540" d="M16 0H0v16h16z" style="fill:none"/>
        <path data-name="패스 10541" d="M2.635 5.444a2.667 2.667 0 0 1 2.608-2.111h.312l.018.11A.667.667 0 0 0 6.231 4h3.538a.667.667 0 0 0 .658-.557l.018-.11h.312a2.667 2.667 0 0 1 2.609 2.111l1.278 6a1.013 1.013 0 0 1-1.87.714l-1.157.663 1.157-.663-.75-1.309a2 2 0 0 0-1.735-1.006H5.712a2 2 0 0 0-1.735 1.006l-.75 1.309a1.013 1.013 0 0 1-1.87-.714zm8.232 6.067.75 1.309a2.347 2.347 0 0 0 4.331-1.655l-1.278-6A4 4 0 0 0 10.757 2H5.243a4 4 0 0 0-3.912 3.166l-1.278 6a2.347 2.347 0 0 0 4.331 1.654l.75-1.309a.667.667 0 0 1 .579-.335h4.576a.667.667 0 0 1 .577.336zM4.667 6v-.667a.667.667 0 0 1 1.333 0V6h.667a.667.667 0 0 1 0 1.333H6V8a.667.667 0 0 1-1.333 0v-.667H4A.667.667 0 1 1 4 6zm4.869.179.488.488-.488.488a.69.69 0 1 0 .976.976L11 7.643l.488.488a.69.69 0 0 0 .976-.976l-.488-.488.488-.488a.69.69 0 0 0-.976-.976L11 5.69l-.488-.49a.69.69 0 1 0-.976.976z" style="fill:#fff;fill-rule:evenodd"/>
    </g>
</svg>
