<svg xmlns="http://www.w3.org/2000/svg" width="16" height="16" viewBox="0 0 16 16">
    <path data-name="패스 2649" d="M11.345 8.028a5.045 5.045 0 0 0-3.226.078q-.06.032-.119.067c.008-.119.012-.239.012-.361 0-1.469-1.336-3.067-1.924-3.694a.372.372 0 0 0-.546 0c-.589.63-1.924 2.224-1.924 3.694 0 .122 0 .242.012.361l-.12-.066a5.045 5.045 0 0 0-3.225-.079.375.375 0 0 0-.264.487 5.043 5.043 0 0 0 1.823 2.663 4.251 4.251 0 0 0 .518.238l-.047.064a5.045 5.045 0 0 0-.454 3.2.375.375 0 0 0 .453.319 5.044 5.044 0 0 0 2.857-1.5c.037-.052.072-.1.1-.157l-.085 2a.627.627 0 1 0 1.252 0l-.085-2c.034.053.068.1.1.157a5.043 5.043 0 0 0 2.857 1.5.375.375 0 0 0 .453-.319 5.045 5.045 0 0 0-.454-3.2l-.047-.064a4.253 4.253 0 0 0 .518-.238 5.045 5.045 0 0 0 1.82-2.664.375.375 0 0 0-.264-.487" transform="translate(2.2 -2)" style="fill:#f78029"/>
    <path data-name="사각형 8307" style="fill:none" d="M0 0h16v16H0z"/>
</svg>
